HIERARCHY
ROOT Hips
{
	OFFSET -0.001795 -0.223333 0.028219
	CHANNELS 6 Xposition Yposition Zposition Zrotation Yrotation Xrotation 
	JOINT LeftUpLeg
	{
		OFFSET 0.069520 -0.091406 -0.006815
		CHANNELS 3 Zrotation Yrotation Xrotation
		JOINT LeftLeg
		{
			OFFSET 0.034277 -0.375199 -0.004496
			CHANNELS 3 Zrotation Yrotation Xrotation
			JOINT LeftFoot
			{
				OFFSET -0.013596 -0.397961 -0.043693
				CHANNELS 3 Zrotation Yrotation Xrotation
				JOINT LeftToe
				{
					OFFSET 0.026358 -0.055791 0.119288
					CHANNELS 3 Zrotation Yrotation Xrotation
					End Site
					{
						OFFSET 0.000000 0.000000 0.000000
					}
				}
			}
		}
	}
	JOINT RightUpLeg
	{
		OFFSET -0.067670 -0.090522 -0.004320
		CHANNELS 3 Zrotation Yrotation Xrotation
		JOINT RightLeg
		{
			OFFSET -0.038290 -0.382569 -0.008850
			CHANNELS 3 Zrotation Yrotation Xrotation
			JOINT RightFoot
			{
				OFFSET 0.015774 -0.398415 -0.042312
				CHANNELS 3 Zrotation Yrotation Xrotation
				JOINT RightToe
				{
					OFFSET -0.025372 -0.048144 0.123348
					CHANNELS 3 Zrotation Yrotation Xrotation
					End Site
					{
						OFFSET 0.000000 0.000000 0.000000
					}
				}
			}
		}
	}
	JOINT Spine
	{
		OFFSET -0.002533 0.108963 -0.026696
		CHANNELS 3 Zrotation Yrotation Xrotation
		JOINT Spine1
		{
			OFFSET 0.005487 0.135180 0.001092
			CHANNELS 3 Zrotation Yrotation Xrotation
			JOINT Spine2
			{
				OFFSET 0.001457 0.052922 0.025425
				CHANNELS 3 Zrotation Yrotation Xrotation
				JOINT Neck
				{
					OFFSET -0.002778 0.213870 -0.042857
					CHANNELS 3 Zrotation Yrotation Xrotation
					JOINT Head
					{
						OFFSET 0.005152 0.064970 0.051349
						CHANNELS 3 Zrotation Yrotation Xrotation
						End Site
						{
							OFFSET 0.000000 0.000000 0.000000
						}
					}
				}
				JOINT LeftShoulder
				{
					OFFSET 0.078845 0.121749 -0.034090
					CHANNELS 3 Zrotation Yrotation Xrotation
					JOINT LeftArm
					{
						OFFSET 0.090977 0.030469 -0.008868
						CHANNELS 3 Zrotation Yrotation Xrotation
						JOINT LeftForeArm
						{
							OFFSET 0.259612 -0.012772 -0.027456
							CHANNELS 3 Zrotation Yrotation Xrotation
							JOINT LeftHand
							{
								OFFSET 0.249234 0.008986 -0.001171
								CHANNELS 3 Zrotation Yrotation Xrotation
								End Site
								{
									OFFSET 0.000000 0.000000 0.000000
								}
							}
						}
					}
				}
				JOINT RightShoulder
				{
					OFFSET -0.081759 0.118833 -0.038615
					CHANNELS 3 Zrotation Yrotation Xrotation
					JOINT RightArm
					{
						OFFSET -0.096012 0.032551 -0.009143
						CHANNELS 3 Zrotation Yrotation Xrotation
						JOINT RightForeArm
						{
							OFFSET -0.253742 -0.013329 -0.021401
							CHANNELS 3 Zrotation Yrotation Xrotation
							JOINT RightHand
							{
								OFFSET -0.255298 0.007772 -0.005559
								CHANNELS 3 Zrotation Yrotation Xrotation
								End Site
								{
									OFFSET 0.000000 0.000000 0.000000
								}
							}
						}
					}
				}
			}
		}
	}
}
MOTION
Frames: 14
Frame Time: 0.050000
-0.676086 0.858534 -0.225612 10.125075 64.113421 25.522956 31.187608 -13.965357 -64.884819 -50.674918 22.010288 77.661299 14.922204 27.645446 15.078159 0.000000 0.000000 0.000000 16.001810 -4.830439 -51.472737 -22.634790 2.333319 44.989337 6.434167 22.951517 -19.804491 0.000000 0.000000 0.000000 -19.144605 -16.236320 69.177955 -4.327970 1.495920 -36.892872 10.200477 34.549577 39.612076 8.123208 6.024802 -46.963192 0.000000 0.000000 0.000000 -19.145252 -11.797593 -13.542186 -54.609216 -3.810481 -3.401032 108.824731 -64.864334 -97.837172 0.000000 0.000000 0.000000 18.116687 -7.348829 6.559549 51.295310 26.597502 4.334002 -96.069296 34.885354 -7.572226 0.000000 0.000000 0.000000 
-0.687150 0.853880 -0.224076 9.073251 65.061114 24.575938 32.064214 -13.891093 -64.757593 -55.063623 23.942852 74.167542 17.357482 30.306373 17.756587 0.000000 0.000000 0.000000 17.267103 -4.832131 -52.457490 -22.692002 2.357967 45.563460 6.360220 22.746863 -19.708314 0.000000 0.000000 0.000000 -20.366271 -15.925378 69.591301 -3.225531 1.403403 -37.317944 11.893691 36.252408 40.675284 8.239557 6.227110 -47.317511 0.000000 0.000000 0.000000 -19.689577 -12.827637 -14.253219 -54.801693 -3.238335 -3.298644 106.338727 -66.188527 -96.820263 0.000000 0.000000 0.000000 20.378136 -8.708156 7.245138 50.451894 29.611268 4.812585 -97.277156 35.720342 -8.209396 0.000000 0.000000 0.000000 
-0.698114 0.849632 -0.222437 7.723963 66.158092 23.232545 33.120141 -13.721657 -64.172562 -57.162227 23.132309 70.679558 18.524055 32.273802 17.853526 0.000000 0.000000 0.000000 17.907800 -4.869652 -52.466033 -21.544535 1.705844 45.284917 6.148484 21.815477 -20.070090 0.000000 0.000000 0.000000 -21.502456 -15.496923 69.270096 -2.125688 1.292947 -37.112365 12.728139 37.431078 40.947429 8.199050 6.476101 -47.092703 0.000000 0.000000 0.000000 -18.511031 -12.969997 -13.923566 -54.995105 -3.841605 -3.391318 100.305267 -67.109716 -92.058608 0.000000 0.000000 0.000000 21.682310 -8.497768 8.596954 50.942518 31.320222 5.308168 -98.110072 36.120825 -8.593726 0.000000 0.000000 0.000000 
-0.708117 0.845967 -0.221218 7.100728 67.061271 22.788321 35.178416 -13.179758 -63.257095 -60.029669 22.967815 66.844996 20.067060 34.235092 19.076052 0.000000 0.000000 0.000000 18.442786 -5.089689 -53.027040 -20.722767 1.322052 45.213487 6.048652 21.283861 -20.158849 0.000000 0.000000 0.000000 -22.201886 -15.349715 69.166004 -2.150302 1.247984 -37.747484 13.825366 37.621353 41.781794 7.558159 6.751516 -46.854607 0.000000 0.000000 0.000000 -17.427795 -12.762812 -13.475727 -56.046747 -4.923047 -3.599260 95.219042 -67.391894 -87.594063 0.000000 0.000000 0.000000 21.726758 -8.808266 8.593406 53.467459 31.652246 6.353473 -100.198976 37.656918 -9.917562 0.000000 0.000000 0.000000 
-0.717007 0.844132 -0.220865 6.712048 68.050184 22.425283 35.263283 -13.040367 -61.545191 -60.691559 21.598907 65.685283 21.073414 35.400755 20.192981 0.000000 0.000000 0.000000 18.723328 -5.396140 -53.441960 -19.932269 0.888909 45.113558 5.998271 20.649171 -19.919819 0.000000 0.000000 0.000000 -22.719849 -15.295249 68.863580 -2.058909 1.280714 -36.886000 13.641652 37.464314 41.083643 7.562358 6.746144 -46.561201 0.000000 0.000000 0.000000 -15.730057 -12.390443 -12.349083 -56.968911 -6.207390 -3.927721 90.294377 -65.690878 -81.575965 0.000000 0.000000 0.000000 22.258665 -8.237276 9.464920 54.941840 32.059949 6.839681 -101.484925 38.285490 -10.829855 0.000000 0.000000 0.000000 
-0.725579 0.837355 -0.221712 5.359036 69.530037 21.462971 35.629500 -12.750800 -59.032470 -60.445602 20.617915 67.109906 21.178814 36.003935 18.840346 0.000000 0.000000 0.000000 19.752688 -5.979231 -55.374050 -19.740389 0.735899 46.658991 5.840427 20.649467 -20.089255 0.000000 0.000000 0.000000 -22.590608 -15.629641 68.320028 -1.968818 1.219052 -36.947691 13.624565 37.059211 41.271030 7.356891 6.892630 -45.271618 0.000000 0.000000 0.000000 -14.541607 -10.642635 -12.348192 -56.456132 -7.394044 -3.842001 83.906927 -64.172083 -73.972077 0.000000 0.000000 0.000000 21.961350 -8.916197 8.915546 56.509020 30.201897 6.559555 -100.385237 41.038874 -12.853650 0.000000 0.000000 0.000000 
-0.734602 0.826302 -0.223652 4.215193 70.693259 20.287322 35.843717 -12.338780 -56.085972 -61.489092 20.614946 68.486981 21.859370 36.683326 18.881665 0.000000 0.000000 0.000000 21.128633 -6.397902 -57.517636 -20.758019 1.156892 48.854740 5.618245 21.262126 -20.874832 0.000000 0.000000 0.000000 -22.776294 -15.892251 68.308815 -2.059295 1.251789 -36.867993 13.458782 36.897296 41.085738 8.080255 6.806466 -44.291428 0.000000 0.000000 0.000000 -13.479118 -9.826060 -11.787439 -54.692402 -8.514307 -3.398931 79.710765 -60.573746 -66.930631 0.000000 0.000000 0.000000 23.771135 -9.847782 9.307224 55.653615 29.368586 4.970225 -100.908899 42.572198 -14.656250 0.000000 0.000000 0.000000 
-0.744590 0.807797 -0.226358 0.062202 72.209027 16.431973 36.132828 -11.854093 -52.476664 -61.973707 20.250995 70.481908 20.518388 34.059901 20.830637 0.000000 0.000000 0.000000 23.636370 -6.523137 -60.258447 -21.935670 1.862758 51.632638 4.985383 21.754896 -22.759543 0.000000 0.000000 0.000000 -22.487298 -16.416889 68.059335 -1.718428 1.242579 -36.588798 12.658496 36.554943 40.487470 8.339088 6.895151 -42.918518 0.000000 0.000000 0.000000 -12.218182 -8.758893 -11.102359 -52.489901 -9.290627 -3.147960 78.554556 -57.479388 -63.219695 0.000000 0.000000 0.000000 24.566063 -9.682066 9.909710 53.616419 27.680251 2.969027 -98.394801 43.564781 -15.546942 0.000000 0.000000 0.000000 
-0.755838 0.784108 -0.230451 -5.081374 72.957971 11.352997 37.361762 -11.261542 -48.538069 -65.459364 20.539264 68.385354 20.688026 32.860545 24.846016 0.000000 0.000000 0.000000 27.384959 -6.054884 -63.675376 -24.869981 4.056564 54.949858 4.259721 23.073481 -24.763963 0.000000 0.000000 0.000000 -22.447370 -16.299293 67.025430 -1.377419 1.232206 -35.564854 12.170653 35.715603 40.617121 8.899541 6.781198 -42.579329 0.000000 0.000000 0.000000 -11.318457 -6.002712 -11.499374 -51.393892 -10.287192 -2.916427 78.567647 -55.044603 -61.014909 0.000000 0.000000 0.000000 24.358711 -9.703697 9.695968 52.537160 26.211136 1.986122 -96.361405 44.056817 -15.913502 0.000000 0.000000 0.000000 
-0.769597 0.756140 -0.236614 -10.300092 73.841965 6.364788 36.810426 -11.033834 -45.788195 -67.379119 18.973108 66.065717 24.544771 36.907391 27.016928 0.000000 0.000000 0.000000 30.820791 -5.715726 -67.331054 -26.945921 6.236530 57.925808 3.144074 23.878192 -27.525018 0.000000 0.000000 0.000000 -23.995973 -16.271361 68.119347 -1.239769 1.119688 -36.408180 12.932188 35.540397 40.765912 8.575077 6.929061 -40.752458 0.000000 0.000000 0.000000 -8.088306 -4.008007 -9.399541 -52.931096 -11.697479 -4.051888 84.587863 -52.773061 -64.624832 0.000000 0.000000 0.000000 22.731140 -8.749727 9.153051 53.129641 23.300666 1.285048 -94.009465 44.454268 -15.738591 0.000000 0.000000 0.000000 
-0.786756 0.726485 -0.245669 -13.575072 75.191243 4.040996 37.664700 -11.381005 -45.605114 -71.173791 17.499470 60.499261 35.771875 46.499097 33.371780 0.000000 0.000000 0.000000 34.595394 -5.548745 -72.133717 -29.122102 9.287083 59.648140 2.039875 24.599433 -30.316021 0.000000 0.000000 0.000000 -25.725129 -16.152678 68.773171 -1.387978 1.310986 -34.303343 11.274542 35.210118 37.481143 9.582965 6.328245 -40.104971 0.000000 0.000000 0.000000 -6.545928 -3.615839 -7.975612 -52.295231 -13.713007 -3.395377 86.805548 -47.917864 -62.595717 0.000000 0.000000 0.000000 21.962096 -8.355011 8.789892 54.294169 22.291795 1.522186 -93.773681 45.072668 -16.624954 0.000000 0.000000 0.000000 
-0.807746 0.690537 -0.257393 -19.403769 76.292898 -2.030849 38.915018 -11.853470 -47.713937 -73.108551 18.153271 59.066886 51.882679 54.868942 45.184886 0.000000 0.000000 0.000000 38.231632 -4.843596 -77.158014 -35.324588 15.698719 63.944771 0.575573 31.084462 -34.772773 0.000000 0.000000 0.000000 -28.622820 -16.005054 71.226668 -0.187308 1.036044 -35.484487 12.928558 37.440899 39.242810 9.447219 6.446060 -40.412289 0.000000 0.000000 0.000000 -4.399458 -3.629038 -6.516768 -52.818883 -15.614600 -3.641560 94.354654 -43.520580 -65.617564 0.000000 0.000000 0.000000 18.726290 -8.769343 6.548818 56.796661 19.159719 2.186337 -94.450964 44.911780 -15.852419 0.000000 0.000000 0.000000 
-0.829758 0.648748 -0.269059 -23.129649 77.845881 -5.309363 43.268901 -12.696089 -51.514315 -77.377949 19.744678 54.863419 67.500030 60.271808 56.172555 0.000000 0.000000 0.000000 42.921763 -3.446595 -83.360889 -45.159918 25.899998 65.217780 -2.607746 39.107027 -41.936139 0.000000 0.000000 0.000000 -31.835209 -15.582514 73.184778 0.803041 0.904064 -35.478865 13.119752 38.615077 39.087421 9.705756 6.311709 -40.040687 0.000000 0.000000 0.000000 -2.963247 -3.037079 -5.672520 -53.658712 -17.649329 -3.347435 103.352012 -40.686500 -71.140133 0.000000 0.000000 0.000000 16.236193 -7.507636 5.967512 58.762682 16.929139 2.565794 -97.532288 43.813891 -15.658156 0.000000 0.000000 0.000000 
-0.849055 0.603678 -0.278263 -23.216358 79.002211 -5.406701 50.500186 -13.089027 -56.668390 -84.805282 24.567140 48.886666 72.660603 62.181810 58.540009 0.000000 0.000000 0.000000 46.458612 -1.654555 -88.612925 -58.437254 37.033337 62.195602 -9.088388 46.323883 -53.189929 0.000000 0.000000 0.000000 -36.917069 -14.281353 76.911150 2.409405 0.768316 -36.345686 15.133002 42.025003 39.757882 10.682474 5.936836 -40.938240 0.000000 0.000000 0.000000 -2.026058 -4.270651 -4.641817 -53.081094 -19.130541 -2.815624 110.270379 -35.785294 -72.519280 0.000000 0.000000 0.000000 12.743962 -6.770310 4.300595 62.656991 14.345783 4.180961 -100.649752 43.307896 -16.223295 0.000000 0.000000 0.000000 
